<?xml version="1.0" ?><svg viewBox="0 0 64 64" xmlns="http://www.w3.org/2000/svg"><defs><style>.cls-1{fill:#ffe078;}.cls-2{fill:none;stroke:#373737;stroke-linecap:round;stroke-linejoin:round;}</style></defs><title/><g id="glass"><path class="cls-1" d="M13,14H37a0,0,0,0,1,0,0V48a4,4,0,0,1-4,4H17a4,4,0,0,1-4-4V14A0,0,0,0,1,13,14Z"/><rect class="cls-2" height="4" rx="2" ry="2" width="36" x="7" y="56"/><path class="cls-2" d="M27,10H9a2,2,0,0,0,0,4V56H41V49H51a6,6,0,0,0,6-6V27a6,6,0,0,0-6-6H41V14a2,2,0,0,0,0-4H37M53,42a3,3,0,0,1-3,3H41V25h9a3,3,0,0,1,3,3Z"/><line class="cls-2" x1="25" x2="25" y1="23" y2="45"/><line class="cls-2" x1="33" x2="33" y1="23" y2="45"/><line class="cls-2" x1="17" x2="17" y1="23" y2="45"/><path class="cls-2" d="M9,10H9a6,6,0,0,1,6-6H35a6,6,0,0,1,6,6h0"/></g></svg>