<?xml version="1.0" ?><svg viewBox="0 0 64 64" xmlns="http://www.w3.org/2000/svg"><defs><style>.cls-1{fill:#ffe54b;}.cls-2{fill:none;stroke:#373737;stroke-linecap:round;stroke-linejoin:round;}.cls-3{fill:#fbaa53;}</style></defs><title/><g id="glass"><path class="cls-1" d="M55.5355,11.4645A5,5,0,0,0,47,15H57A4.984,4.984,0,0,0,55.5355,11.4645Z"/><path class="cls-2" d="M60,15a7.9751,7.9751,0,0,0-2.3431-5.6569L52,15Z"/><path class="cls-2" d="M52,15,46.3431,9.3431A7.9751,7.9751,0,0,0,44,15Z"/><polygon class="cls-2" points="44 60 20 60 30 56 34 56 44 60"/><polyline class="cls-2" points="30 40 30 56 34 56 34 40"/><path class="cls-2" d="M12,15v6A10.0036,10.0036,0,0,0,22,31h1a9,9,0,0,0,18,0h1A10.0036,10.0036,0,0,0,52,21V15Z"/><path class="cls-3" d="M32,36a5.0138,5.0138,0,0,1-5-5V27H22a6.0066,6.0066,0,0,1-6-6V19H48v2a6.0066,6.0066,0,0,1-6,6H37v4A5.0059,5.0059,0,0,1,32,36Z"/><polyline class="cls-2" points="11 4 20 4 32 15"/><path class="cls-2" d="M46.3431,9.3431,52,15V7A7.9751,7.9751,0,0,0,46.3431,9.3431Z"/><path class="cls-2" d="M52,7v8l5.6569-5.6569A7.9751,7.9751,0,0,0,52,7Z"/></g></svg>