<?xml version="1.0" ?><svg viewBox="0 0 64 64" xmlns="http://www.w3.org/2000/svg"><defs><style>.cls-1{fill:none;stroke:#373737;stroke-linecap:round;stroke-linejoin:round;}.cls-2{fill:#ffcddb;}.cls-3{fill:#fff;}</style></defs><title/><g id="glass"><polygon class="cls-1" points="43 60 21 60 30 56 34 56 43 60"/><path class="cls-1" d="M44,32,42,4H22L20,32A11.9933,11.9933,0,0,0,30,43.82V56h4V43.82A11.9933,11.9933,0,0,0,44,32Z"/><path class="cls-2" d="M32,40a8.0089,8.0089,0,0,1-7.999-7.8716L25.7246,8H38.2754L39.999,32.1284A8.0089,8.0089,0,0,1,32,40Z"/><circle class="cls-3" cx="36" cy="31" r="1"/><circle class="cls-3" cx="34" cy="14" r="1"/><circle class="cls-3" cx="29" cy="27" r="1"/></g></svg>