<?xml version="1.0" ?><svg viewBox="0 0 64 64" xmlns="http://www.w3.org/2000/svg"><defs><style>.cls-1{fill:none;stroke:#373737;stroke-linecap:round;stroke-linejoin:round;}.cls-2{fill:#ffe078;}</style></defs><title/><g id="glass"><polygon class="cls-1" points="16 12 18 36.05 20 60 32 60 44 60 46 36.05 48 12 16 12"/><polygon class="cls-2" points="23.68 56 21.986 35.717 20.347 16 43.653 16 42.014 35.719 40.32 56 23.68 56"/><path class="cls-1" d="M32,36h0a5,5,0,0,1,5,5V60a0,0,0,0,1,0,0H27a0,0,0,0,1,0,0V41A5,5,0,0,1,32,36Z"/><path class="cls-1" d="M46,36.05,44,60H37V46A10.0059,10.0059,0,0,1,46,36.05Z"/><path class="cls-1" d="M27,46V60H20L18,36.05A10.0046,10.0046,0,0,1,27,46Z"/><path class="cls-2" d="M51.96,8.04a5.6,5.6,0,0,0-7.92,0l7.92,7.92A5.6,5.6,0,0,0,51.96,8.04Z"/><line class="cls-1" x1="42.3431" x2="53.6569" y1="6.3431" y2="17.6569"/><path class="cls-1" d="M53.6569,6.3431A7.9754,7.9754,0,0,0,48,4v8Z"/><path class="cls-1" d="M56,12a7.9754,7.9754,0,0,0-2.3431-5.6569L48,12Z"/><path class="cls-1" d="M48,12l5.6569,5.6569A7.9753,7.9753,0,0,0,56,12Z"/><polygon class="cls-1" points="48 12 48 12 48 12 48 12"/><polygon class="cls-1" points="48 12 48 12 48 12 48 12"/><path class="cls-1" d="M48,4a7.9753,7.9753,0,0,0-5.6569,2.3431L48,12h0Z"/></g></svg>