<?xml version="1.0" ?><svg viewBox="0 0 64 64" xmlns="http://www.w3.org/2000/svg"><defs><style>.cls-1{fill:none;stroke:#373737;stroke-linecap:round;stroke-linejoin:round;}.cls-2{fill:#ffe078;}.cls-3{fill:#ff7160;}</style></defs><title/><g id="glass"><polygon class="cls-1" points="44 59.875 35 56 29 56 20 59.875 44 59.875"/><path class="cls-1" d="M40.3688,23.837a4.3116,4.3116,0,0,1-1.1193-4.36L44,4H20l4.75,15.4384A4.3108,4.3108,0,0,1,23.59,23.84a8.4172,8.4172,0,0,0,1.1129,13.045L29,40h0a32.9855,32.9855,0,0,1,0,16h6a32.9855,32.9855,0,0,1,0-16h0l4.3264-3.1613a8.3507,8.3507,0,0,0,1.1041-12.9419Z"/><path class="cls-2" d="M35.4248,18.3037,38.5879,8H25.416l3.1572,10.2627A8.3108,8.3108,0,0,1,28.6208,23h6.7568A8.2864,8.2864,0,0,1,35.4248,18.3037Z"/><path class="cls-3" d="M35.3776,23H28.6208a8.1615,8.1615,0,0,1-2.2458,3.7109,4.3788,4.3788,0,0,0-1.36,3.5489,4.5144,4.5144,0,0,0,2.0362,3.3867l1.8763,1.36A5.2206,5.2206,0,0,0,31.9908,36h0a5.2206,5.2206,0,0,0,3.079-1.0047l1.978-1.4445a4.3545,4.3545,0,0,0,.5371-6.8428A8.29,8.29,0,0,1,35.3776,23Z"/></g></svg>