<?xml version="1.0" ?><svg viewBox="0 0 64 64" xmlns="http://www.w3.org/2000/svg"><defs><style>.cls-1{fill:#a2cd79;}.cls-2{fill:none;stroke:#373737;stroke-linecap:round;stroke-linejoin:round;}</style></defs><title/><g id="glass"><rect class="cls-1" height="22" transform="translate(70 10) rotate(90)" width="32" x="14" y="29"/><path class="cls-2" d="M49,25H45V23a2.996,2.996,0,0,0-3-3V10H18V20a2.996,2.996,0,0,0-3,3V57a2.996,2.996,0,0,0,3,3H42a2.996,2.996,0,0,0,3-3V51h4a6.0048,6.0048,0,0,0,6-6V31A6.0048,6.0048,0,0,0,49,25Zm2,20a2.0059,2.0059,0,0,1-2,2H45V29h4a2.0059,2.0059,0,0,1,2,2Z"/><polyline class="cls-2" points="12 4 24 4 38 56"/><line class="cls-2" x1="31" x2="44" y1="14.9286" y2="14"/><line class="cls-2" x1="16" x2="23" y1="16" y2="15.5"/><line class="cls-2" x1="34" x2="42" y1="20" y2="20"/><line class="cls-2" x1="18" x2="22" y1="20" y2="20"/></g></svg>