<svg width="64" height="64" xmlns="http://www.w3.org/2000/svg">
 <title/>

 <g>
  <title>background</title>
  <rect fill="none" id="canvas_background" height="402" width="582" y="-1" x="-1"/>
 </g>
 <g>
  <title>Layer 1</title>
  <path stroke="#000" id="svg_3" fill="#0000bf" stroke-linecap="round" stroke-linejoin="round" stroke-width="2px" d="m18,8l0,1a2,2 0 0 1 -1,1.76a1.92,1.92 0 0 0 -0.95,1.7l0,40.08a1.92,1.92 0 0 0 0.95,1.7a2,2 0 0 1 1,1.76c0,2.76 6.27,5 14,5s14,-2.24 14,-5a2,2 0 0 1 1,-1.76a1.92,1.92 0 0 0 1,-1.7l0,-40.08a1.92,1.92 0 0 0 -1,-1.7a2,2 0 0 1 -1,-1.76l0,-1"/>
  <rect stroke="#000" id="svg_25" height="8.867699" width="4.386173" y="27.696024" x="16.74515" stroke-opacity="null" stroke-width="0" fill="#ff0000"/>
  <rect stroke="#000" id="svg_24" height="14.112037" width="9.058403" y="33.41712" x="26.184958" stroke-opacity="null" stroke-width="0" fill="#ff0000"/>
  <rect stroke="#000" transform="rotate(89.10871124267578 46.923683166503906,11.626729011535643) " id="svg_23" height="1.738581" width="2.560491" y="10.757439" x="45.643441" stroke-opacity="null" stroke-width="0" fill="#cccccc"/>
  <rect stroke="#000" transform="rotate(89.10871124267578 18.511096954345707,13.102421760559082) " id="svg_21" height="1.929262" width="2.082308" y="12.137791" x="17.469942" stroke-opacity="null" stroke-width="0" fill="#cccccc"/>
  <rect stroke="#000" transform="rotate(89.10871124267578 18.03214836120606,12.00813579559326) " id="svg_22" height="1.738581" width="2.560491" y="11.138845" x="16.751904" stroke-opacity="null" stroke-width="0" fill="#cccccc"/>
  <rect stroke="#000" transform="rotate(-178.85574340820312 46.87353515625,12.666002273559569) " id="svg_20" height="2.452194" width="1.740614" y="11.439905" x="46.003227" stroke-opacity="null" stroke-width="0" fill="#cccccc"/>
  <rect stroke="#000" transform="rotate(90.98213195800781 45.1569938659668,12.056691169738771) " id="svg_17" height="2.730035" width="3.270863" y="10.691672" x="43.52156" stroke-opacity="null" stroke-width="0" fill="#cccccc"/>
  <rect stroke="#000" transform="rotate(89.10871124267578 19.271787643432617,11.726531982421875) " id="svg_19" height="1.166541" width="1.797771" y="11.143261" x="18.372902" stroke-opacity="null" stroke-width="0" fill="#cccccc"/>
  <rect stroke="#000" transform="rotate(89.10871124267578 32.2911376953125,10.197048187255856) " id="svg_15" height="26.501785" width="9.447225" y="-3.053844" x="27.567527" stroke-opacity="null" stroke-width="0" fill="#cccccc"/>
  <rect stroke="#000" transform="rotate(88.31171417236328 31.999538421630856,7.556591987609864) " id="svg_16" height="20.317784" width="7.725185" y="-2.6023" x="28.136945" stroke-opacity="null" stroke-width="0" fill="#cccccc"/>
  <rect stroke="#000" id="svg_9" height="11.060786" width="11.25149" y="25.598288" x="36.578282" stroke-opacity="null" stroke-width="0" fill="#ff0000"/>
  <rect id="svg_11" height="11.060786" width="11.918951" y="37.326536" x="16.745148" stroke-opacity="null" stroke-width="0" stroke="#000" fill="#ff0000"/>
  <rect stroke="#000" id="svg_7" height="18.021453" width="31.084624" y="28.64954" x="16.745149" stroke-opacity="null" stroke-width="0" fill="#ff0000"/>
  <rect stroke="#000" id="svg_12" height="7.246722" width="14.779498" y="41.808061" x="18.652181" stroke-opacity="null" stroke-width="0" fill="#ff0000"/>
  <ellipse id="svg_1" fill="none" stroke="#000" stroke-linecap="round" stroke-linejoin="round" stroke-width="2px" ry="5" rx="14" cy="7.904648" cx="32.190703"/>
  <path id="svg_2" d="m41,8c0,1.1 -1.36,2 -3,2a14.66,14.66 0 0 1 -4.38,-1.1a1,1 0 0 1 0,-1.8a14.66,14.66 0 0 1 4.38,-1.1c1.64,0 3,0.9 3,2z"/>
  <rect stroke="#000" transform="rotate(89.10871124267578 32.13528060913087,15.106578826904295) " id="svg_18" height="18.841949" width="2.988488" y="5.685606" x="30.641036" stroke-opacity="null" stroke-width="0" fill="#cccccc"/>
  <path id="svg_4" fill="none" stroke="#000" stroke-linecap="round" stroke-linejoin="round" stroke-width="2px" d="m48,13.4c-3.65,2.19 -9.46,3.6 -16,3.6s-12.35,-1.41 -16,-3.6"/>
  <rect id="svg_13" height="11.060786" width="11.918951" y="27.123914" x="32.382812" stroke-opacity="null" stroke-width="0" stroke="#000" fill="#ff0000"/>
  <path id="svg_5" fill="none" stroke="#000" stroke-linecap="round" stroke-linejoin="round" stroke-width="2px" d="m16,26.69a18.69,18.69 0 0 0 9.33,2.31c8.67,0 8.67,-4 17.34,-4a18.48,18.48 0 0 1 5.33,0.68"/>
  <rect stroke="#000" id="svg_14" height="7.246722" width="14.493443" y="41.235951" x="16.935852" stroke-opacity="null" stroke-width="0" fill="#ff0000"/>
  <path id="svg_6" fill="none" stroke="#000" stroke-linecap="round" stroke-linejoin="round" stroke-width="2px" d="m16,47.69a18.69,18.69 0 0 0 9.33,2.31c8.67,0 8.67,-4 17.34,-4a18.48,18.48 0 0 1 5.33,0.68"/>
 </g>
</svg>