<?xml version="1.0" ?><svg viewBox="0 0 64 64" xmlns="http://www.w3.org/2000/svg"><defs><style>.cls-1{fill:#cf995f;}.cls-2{fill:#ffe54b;}.cls-2,.cls-3{stroke:#373737;stroke-linecap:round;stroke-linejoin:round;}.cls-3{fill:none;}</style></defs><title/><g id="glass"><path class="cls-1" d="M0,16H44a4,4,0,0,1,4,4V44a4,4,0,0,1-4,4H0a0,0,0,0,1,0,0V16A0,0,0,0,1,0,16Z" transform="translate(56 8) rotate(90)"/><rect class="cls-2" height="12" width="10" x="27" y="20"/><line class="cls-3" x1="32" x2="32" y1="20" y2="4"/><path class="cls-3" d="M54,18H44V4H4V52a7.9978,7.9978,0,0,0,8,8H36a7.9978,7.9978,0,0,0,8-8V44H54a6.0048,6.0048,0,0,0,6-6V24A6.0048,6.0048,0,0,0,54,18Zm2,20a2.0059,2.0059,0,0,1-2,2H44V22H54a2.0059,2.0059,0,0,1,2,2Z"/></g></svg>