<?xml version="1.0" ?><svg viewBox="0 0 64 64" xmlns="http://www.w3.org/2000/svg"><defs><style>.cls-1{fill:#fff5d2;}.cls-2{fill:#fff;}.cls-3{fill:none;stroke:#373737;stroke-linecap:round;stroke-linejoin:round;}</style></defs><title/><g id="glass"><path class="cls-1" d="M41.02,13H22.98a57.2819,57.2819,0,0,1-2.2082,11.375,12.5708,12.5708,0,0,0,1.8594,10.6919,11.3812,11.3812,0,0,0,8.6582,4.91Q31.6464,40,32,40t.7119-.0234a11.3809,11.3809,0,0,0,8.6572-4.91,12.57,12.57,0,0,0,1.8594-10.6914A57.2925,57.2925,0,0,1,41.02,13Z"/><circle class="cls-2" cx="26" cy="29.5" r="2.5"/><path class="cls-3" d="M32,44q-.4834,0-.9727-.0322A15.3109,15.3109,0,0,1,19.3682,37.38a16.5565,16.5565,0,0,1-2.45-14.08c1.2588-4.5166,2.5586-9.7652,2.0332-14.8936L18.5,4h27l-.4512,4.4072c-.5254,5.128.7744,10.377,2.0332,14.8946a16.5566,16.5566,0,0,1-2.45,14.0791,15.3116,15.3116,0,0,1-11.6582,6.5869Q32.4814,44,32,44Z"/><polyline class="cls-3" points="30 44 30 56 34 56 34 44"/><polygon class="cls-3" points="44 60 20 60 30 56 34 56 44 60"/></g></svg>