<?xml version="1.0" ?><svg viewBox="0 0 64 64" xmlns="http://www.w3.org/2000/svg"><defs><style>.cls-1{fill:none;stroke:#373737;stroke-linecap:round;stroke-linejoin:round;}.cls-2{fill:#776652;}.cls-3{fill:#fff;}</style></defs><title/><g id="glass"><path class="cls-1" d="M18,4c-1.2443,7.08-1.4224,13.806,0,20l2.1488,8.5953A61.9988,61.9988,0,0,1,22,47.6325V59a1,1,0,0,0,1,1H41a1,1,0,0,0,1-1V47.6325a61.9988,61.9988,0,0,1,1.8512-15.0372L46,24c1.4224-6.1939,1.2443-12.92,0-20Z"/><path class="cls-2" d="M26,56V47.6323A66.0555,66.0555,0,0,0,24.0293,31.625L21.88,23.03A42.9279,42.9279,0,0,1,21.438,8H42.562a43.0355,43.0355,0,0,1-.46,15.1045l-2.1309,8.52A66.0555,66.0555,0,0,0,38,47.6323V56Z"/><circle class="cls-3" cx="36" cy="14" r="1"/><circle class="cls-3" cx="28" cy="21" r="1"/><circle class="cls-3" cx="35" cy="48" r="1"/></g></svg>