<?xml version="1.0" ?><svg viewBox="0 0 64 64" xmlns="http://www.w3.org/2000/svg"><defs><style>.cls-1{fill:#ffe078;}.cls-2{fill:#fff2a5;}.cls-3{fill:none;stroke:#373737;stroke-linecap:round;stroke-linejoin:round;}</style></defs><title/><g id="glass"><path class="cls-1" d="M15.6836,56q-.2622-.7779-.5249-1.5527C12.43,46.3857,9.853,38.7715,10.0137,32.0957A17.48,17.48,0,0,1,12.2207,24H40.022a13.6443,13.6443,0,0,1,1.9673,7.8945c-.1665,6.292-2.6363,14.252-5.251,22.68q-.2205.7106-.4419,1.4258Z"/><path class="cls-2" d="M31.5355,42.8076a5,5,0,1,0-7.071,7.0711"/><path class="cls-3" d="M28,38.3431v8l5.6569-5.6568A7.9751,7.9751,0,0,0,28,38.3431Z"/><path class="cls-3" d="M22.3431,52,28,46.3431H20A7.9754,7.9754,0,0,0,22.3431,52Z"/><path class="cls-3" d="M28,46.3431l-5.6568-5.6568A7.9744,7.9744,0,0,0,20,46.3431h8"/><path class="cls-3" d="M28,46.3431v-8a7.9747,7.9747,0,0,0-5.6568,2.3432L28,46.3431"/><path class="cls-2" d="M24.4645,17.1213a5,5,0,1,0,7.071,7.0711"/><path class="cls-3" d="M20,20.6569h8L22.3431,15A7.9748,7.9748,0,0,0,20,20.6569Z"/><path class="cls-3" d="M33.6569,26.3137,28,20.6569v8A7.9751,7.9751,0,0,0,33.6569,26.3137Z"/><path class="cls-3" d="M28,20.6569l-5.6568,5.6568A7.9749,7.9749,0,0,0,28,28.6569v-8"/><path class="cls-3" d="M28,20.6569H20a7.975,7.975,0,0,0,2.3432,5.6568L28,20.6569"/><path class="cls-3" d="M42,20V8A34.5869,34.5869,0,0,1,23.3822,9.2465a16.4081,16.4081,0,0,1-6.1211-3.0149A16.3189,16.3189,0,0,0,15.66,5.1784C10.8773,2.417,4,5.3746,4,5.3746S6.1827,9.2,7.9154,12.2057A15.6,15.6,0,0,1,10,20h0"/><path class="cls-3" d="M15,20H10A21.68,21.68,0,0,0,6.0146,32c-.2077,8.6459,3.5674,18.2159,6.7869,28H39.251c2.0133-6.608,4.1164-12.9649,5.4292-18.7677,4.43,2.1142,10.3213-.3368,13.4281-5.7179C61.34,29.9168,60.33,23.2832,55.8516,20.6978c-3.5852-2.07-8.3025-.9111-11.7011,2.5033A15.3427,15.3427,0,0,0,42,20H34M54.644,33.5146C53.0952,36.1973,50.4575,38,48.0806,38a3.8212,3.8212,0,0,1-1.9327-.4951,3.6264,3.6264,0,0,1-.65-.4935A39.2906,39.2906,0,0,0,45.9879,32a20.62,20.62,0,0,0-.3344-4.304c1.574-2.4232,4.0295-4.03,6.2654-4.03a3.8086,3.8086,0,0,1,1.9322.4961,4.6869,4.6869,0,0,1,2.0654,3.417A9.3646,9.3646,0,0,1,54.644,33.5146Z"/></g></svg>