<svg width="64" height="64" xmlns="http://www.w3.org/2000/svg">

 <title/>
 <g>
  <title>background</title>
  <rect fill="none" id="canvas_background" height="402" width="582" y="-1" x="-1"/>
 </g>
 <g>
  <title>Layer 1</title>
  <path stroke="null" fill="#c4e0f2" id="svg_2" d="m18.477501,10.247944l1.5225,28.79354l0,0.13038a12,13.349502 0 0 0 24,0l0,-0.13038l1.5225,-28.79354l-27.045,0z" class="cls-2"/>
  <path stroke-linejoin="round" stroke-linecap="round" stroke="#373737" fill="none" id="svg_1" d="m19.7712,56l24.4576,0a3.7712,3.7712 0 0 1 3.7712,3.7712l0,0.2288a0,0 0 0 1 0,0l-32,0a0,0 0 0 1 0,0l0,-0.2288a3.7712,3.7712 0 0 1 3.7712,-3.7712z" class="cls-1"/>
  <line stroke="#373737" stroke-linecap="null" stroke-linejoin="null" id="svg_12" y2="4.881323" x2="11.467818" y1="60.192375" x1="16.096854" stroke-width="null" fill="none"/>
  <line stroke="#373737" stroke-linecap="null" stroke-linejoin="null" id="svg_13" y2="5.000015" x2="52.416987" y1="60.311064" x1="47.787951" stroke-width="null" fill="none"/>
  <line stroke="#000000" stroke-linecap="null" stroke-linejoin="null" id="svg_15" y2="5.474788" x2="52.654374" y1="5.356095" x1="10.993047" fill-opacity="null" stroke-opacity="null" stroke-width="null" fill="none"/>
 </g>
</svg>