<?xml version="1.0" ?><svg viewBox="0 0 64 64" xmlns="http://www.w3.org/2000/svg"><defs><style>.cls-1{fill:none;stroke:#373737;stroke-linecap:round;stroke-linejoin:round;}.cls-2{fill:#ff7160;}</style></defs><title/><g id="glass"><path class="cls-1" d="M51.887,25.1623A17.3272,17.3272,0,0,1,34.5131,44H29.4869A17.3272,17.3272,0,0,1,12.113,25.1623q.0083-.0811.017-.1623a24.2448,24.2448,0,0,1,.88-4.36L18,4H46l4.99,16.64A24.2448,24.2448,0,0,1,51.87,25Q51.8789,25.0811,51.887,25.1623Z"/><path class="cls-1" d="M34,56V44H30V56H24a4,4,0,0,0-4,4H44a4,4,0,0,0-4-4Z"/><path class="cls-2" d="M47.8936,25.4331c-.0159-.146-.0481-.2878-.0671-.4331H16.1734c-.0189.1453-.0511.287-.067.4331l-.0136.1294a12.7915,12.7915,0,0,0,3.3159,9.9624A13.6137,13.6137,0,0,0,29.4868,40h5.0264a13.6137,13.6137,0,0,0,10.0781-4.4751,12.7736,12.7736,0,0,0,3.3193-9.9287Z"/></g></svg>