<svg width="64" height="64" xmlns="http://www.w3.org/2000/svg">

 <title/>
 <g>
  <title>background</title>
  <rect fill="none" id="canvas_background" height="402" width="582" y="-1" x="-1"/>
 </g>
 <g>
  <title>Layer 1</title>
  <path stroke-linejoin="round" stroke-linecap="round" stroke="#373737" fill="none" id="svg_1" d="m50,20l3,0l0,34a6,6 0 0 1 -6,6l-30,0a6,6 0 0 1 -6,-6l0,-34l17,0" class="cls-1"/>
  <path fill="#e4ac68" id="svg_2" d="m17,56a2.002,2.002 0 0 1 -2,-2l0,-30l34,0l0,30a2.002,2.002 0 0 1 -2,2l-30,0z" class="cls-2"/>
  <polyline stroke-linejoin="round" stroke-linecap="round" stroke="#373737" fill="none" id="svg_3" points="11 20 11 4 53 4 53 20" class="cls-1"/>
  <rect stroke-linejoin="round" stroke-linecap="round" stroke="#373737" fill="none" id="svg_4" y="42" x="16" width="13" height="13" class="cls-1"/>
  <polygon stroke-linejoin="round" stroke-linecap="round" stroke="#373737" fill="none" id="svg_5" points="29 55 33 51 33 38 29 42 29 55" class="cls-1"/>
  <polygon stroke-linejoin="round" stroke-linecap="round" stroke="#373737" fill="none" id="svg_6" points="16 42 20 38 33 38 29 42 16 42" class="cls-1"/>
  <rect stroke-linejoin="round" stroke-linecap="round" stroke="#373737" fill="none" id="svg_7" y="28.8432" x="114.955801" width="13" transform="rotate(135 82.64820098876955,12.150799751281738) " height="13" class="cls-1"/>
  <polygon stroke-linejoin="round" stroke-linecap="round" stroke="#373737" fill="none" id="svg_8" points="29.615 23.192 29.615 28.849 38.808 38.042 38.808 32.385 29.615 23.192" class="cls-1"/>
  <polygon stroke-linejoin="round" stroke-linecap="round" stroke="#373737" fill="none" id="svg_9" points="48 23.192 48 28.849 38.808 38.042 38.808 32.385 48 23.192" class="cls-1"/>
 </g>
</svg>