<svg width="64" height="64" xmlns="http://www.w3.org/2000/svg">

 <title/>
 <g>
  <title>background</title>
  <rect fill="none" id="canvas_background" height="402" width="582" y="-1" x="-1"/>
 </g>
 <g>
  <title>Layer 1</title>
  <polygon stroke-linejoin="round" stroke-linecap="round" stroke="#373737" fill="none" id="svg_1" points="42 60 22 60 30 56 34 56 42 60" class="cls-1"/>
  <path stroke-linejoin="round" stroke-linecap="round" stroke="#373737" fill="none" id="svg_2" d="m43.2321,4.5417l-0.1166,-0.5417l-22.231,0l-0.1165,0.5417a34.3747,34.3747 0 0 0 7.5577,29.6483l1.6743,2.1917l0,19.6183l4,0l0,-19.6183l1.6743,-2.1917a34.375,34.375 0 0 0 7.5578,-29.6483z" class="cls-1"/>
  <path fill="#ff7160" id="svg_3" d="m24.2368,8a30.5811,30.5811 0 0 0 7.1211,23.5811l0.0762,0.0878l0.07,0.0923l0.4959,0.6488l0.4956,-0.649l0.07,-0.0923l0.0762,-0.0878a30.58,30.58 0 0 0 7.1214,-23.5809l-15.5264,0z" class="cls-2"/>
 </g>
</svg>